# Blender v2.78 (sub 0) OBJ File: 'mine1.blend'
# www.blender.org
mtllib tree.mtl
o SapinHiver.015_Cylinder.034
v 0.000312 0.738537 1.269885
v -0.128680 0.031855 5.178202
v 0.493224 0.501872 1.384526
v -0.121327 0.029139 5.178517
v 0.772098 0.024209 1.305893
v -0.118048 0.022014 5.178698
v 0.531099 -0.472281 1.392679
v -0.120764 0.014655 5.178638
v 0.058123 -0.748382 1.282329
v -0.127884 0.011371 5.178373
v -0.442294 -0.510452 1.353651
v -0.135237 0.014087 5.178058
v -0.713662 -0.034055 1.246321
v -0.138516 0.021211 5.177877
v -0.480169 0.463700 1.345498
v -0.135800 0.028571 5.177937
v -0.020944 0.630511 1.905691
v -0.042201 0.522484 2.541498
v -0.063457 0.414458 3.177305
v -0.084714 0.306431 3.813111
v -0.105971 0.198404 4.448918
v 0.011688 0.141029 4.547194
v 0.107995 0.213197 3.914661
v 0.204302 0.285366 3.282127
v 0.300610 0.357534 2.649593
v 0.396917 0.429703 2.017060
v 0.082695 0.023785 4.457721
v 0.220576 0.023870 3.827355
v 0.358456 0.023955 3.196989
v 0.496337 0.024040 2.566624
v 0.634217 0.024125 1.936258
v 0.020946 -0.097106 4.549188
v 0.122977 -0.172141 3.917886
v 0.225007 -0.247176 3.286584
v 0.327038 -0.322211 2.655282
v 0.429068 -0.397246 2.023981
v -0.091839 -0.165078 4.451961
v -0.061846 -0.281739 3.818034
v -0.031854 -0.398400 3.184108
v -0.001862 -0.515061 2.550181
v 0.028131 -0.631721 1.916255
v -0.217003 -0.106437 4.539647
v -0.262061 -0.187240 3.902448
v -0.307119 -0.268043 3.265248
v -0.352178 -0.348846 2.628049
v -0.397236 -0.429649 1.990850
v -0.280504 0.009542 4.443158
v -0.367136 0.000823 3.803791
v -0.453767 -0.007897 3.164423
v -0.540399 -0.016616 2.525055
v -0.627031 -0.025335 1.885688
v -0.226261 0.131697 4.537654
v -0.277043 0.198098 3.899223
v -0.327824 0.264498 3.260791
v -0.378606 0.330899 2.622360
v -0.429387 0.397300 1.983929
v -0.107685 0.273472 4.418270
v 0.060258 0.192071 4.518740
v 0.159119 0.026530 4.430718
v 0.073351 -0.144692 4.521558
v -0.087700 -0.240553 4.422572
v -0.263149 -0.157888 4.508066
v -0.354505 0.006388 4.410124
v -0.276242 0.178875 4.505247
v -0.088412 0.432514 3.782036
v 0.188662 0.298972 3.887265
v 0.347975 0.028614 3.802396
v 0.210077 -0.251840 3.891875
v -0.055725 -0.408229 3.789073
v -0.340305 -0.273423 3.869807
v -0.492112 -0.004330 3.768713
v -0.361720 0.277388 3.865197
v -0.068693 0.580067 3.145899
v 0.309838 0.398051 3.255552
v 0.525352 0.030248 3.173615
v 0.338990 -0.351756 3.261827
v -0.024196 -0.564417 3.155478
v -0.410232 -0.381136 3.231787
v -0.618240 -0.014598 3.127762
v -0.439384 0.368670 3.225512
v -0.049274 0.735366 2.509696
v 0.435888 0.502404 2.624000
v 0.710468 0.032185 2.545143
v 0.473171 -0.456548 2.632026
v 0.007635 -0.728351 2.521947
v -0.485033 -0.494124 2.593606
v -0.752108 -0.025170 2.486500
v -0.522316 0.464828 2.585581
v -0.029921 0.892346 1.873480
v 0.562994 0.607901 1.992483
v 0.897264 0.034188 1.916739
v 0.608495 -0.562397 2.002278
v 0.039530 -0.893965 1.888430
v -0.560891 -0.608255 1.955391
v -0.887654 -0.035807 1.845172
v -0.606391 0.562043 1.945596
v 0.681017 0.703567 1.360666
v 1.069631 0.035626 1.287756
v 0.733999 -0.659158 1.372071
v 0.070864 -1.045140 1.254793
v -0.627664 -0.712556 1.317475
v -1.008773 -0.045879 1.204422
v -0.680646 0.650169 1.306070
v -0.010006 1.034886 1.237385
v 0.065003 0.210508 0.172907
v 0.014073 0.219089 1.434730
v 0.225046 0.151393 0.179768
v 0.174117 0.159973 1.441592
v 0.296416 -0.003677 0.183704
v 0.245486 0.004904 1.445527
v 0.237303 -0.163863 0.182407
v 0.186374 -0.155283 1.444230
v 0.082337 -0.235332 0.176638
v 0.031407 -0.226751 1.438461
v -0.077707 -0.176216 0.169777
v -0.128637 -0.167636 1.431600
v -0.149076 -0.021147 0.165841
v -0.200006 -0.012566 1.427665
v -0.089964 0.139040 0.167138
v -0.140894 0.147620 1.428961
vn 0.3462 0.9381 0.0076
vn 0.9076 0.4186 0.0338
vn 0.9373 -0.3462 0.0402
vn 0.4180 -0.9082 0.0230
vn -0.3462 -0.9381 -0.0076
vn -0.9076 -0.4186 -0.0338
vn -0.0403 0.0068 0.9992
vn -0.4180 0.9082 -0.0230
vn -0.9373 0.3462 -0.0402
vn 0.0403 -0.0068 -0.9992
vn 0.2675 0.9159 0.2992
vn 0.8768 0.3520 0.3276
vn 0.9013 -0.2774 0.3329
vn 0.3376 -0.8873 0.3143
vn -0.2913 -0.9119 0.2890
vn -0.9005 -0.3480 0.2606
vn -0.3614 0.8913 0.2740
vn -0.9250 0.2814 0.2554
vn 0.2921 0.8233 0.4866
vn 0.2936 0.8410 0.4545
vn 0.2975 0.8642 0.4058
vn 0.2960 0.8867 0.3551
vn 0.2799 0.9087 0.3096
vn 0.7733 0.3780 0.5091
vn 0.7924 0.3793 0.4777
vn 0.8176 0.3827 0.4301
vn 0.8427 0.3807 0.3807
vn 0.8682 0.3643 0.3370
vn 0.8000 -0.3082 0.5148
vn 0.8191 -0.3086 0.4835
vn 0.8446 -0.3109 0.4359
vn 0.8695 -0.3077 0.3864
vn 0.8936 -0.2901 0.3425
vn 0.3549 -0.7899 0.5001
vn 0.3577 -0.8079 0.4683
vn 0.3634 -0.8316 0.4200
vn 0.3637 -0.8550 0.3697
vn 0.3494 -0.8790 0.3245
vn -0.3308 -0.8168 0.4726
vn -0.3297 -0.8349 0.4407
vn -0.3297 -0.8588 0.3922
vn -0.3241 -0.8820 0.3421
vn -0.3045 -0.9046 0.2983
vn -0.8120 -0.3715 0.4502
vn -0.8285 -0.3732 0.4174
vn -0.8499 -0.3773 0.3679
vn -0.8709 -0.3759 0.3166
vn -0.8927 -0.3602 0.2709
vn -0.3936 0.7964 0.4591
vn -0.3938 0.8140 0.4269
vn -0.3956 0.8370 0.3780
vn -0.3918 0.8598 0.3276
vn -0.3740 0.8831 0.2833
vn -0.8387 0.3148 0.4444
vn -0.8553 0.3147 0.4117
vn -0.8768 0.3163 0.3621
vn -0.8976 0.3124 0.3109
vn -0.9181 0.2942 0.2654
vn 0.3199 -0.4969 -0.8067
vn -0.4787 0.2422 -0.8439
vn -0.4579 -0.2927 -0.8395
vn 0.2809 0.5067 -0.8151
vn -0.2536 0.4857 -0.8365
vn 0.5450 -0.2534 -0.7993
vn -0.2146 -0.5179 -0.8281
vn 0.5242 0.2815 -0.8037
vn 0.2378 -0.3377 -0.9107
vn -0.3087 0.1681 -0.9362
vn -0.2941 -0.2072 -0.9331
vn 0.2115 0.3399 -0.9164
vn -0.1635 0.3252 -0.9314
vn 0.3830 -0.1806 -0.9059
vn -0.1371 -0.3524 -0.9257
vn 0.3684 0.1946 -0.9090
vn 0.1867 -0.2644 -0.9462
vn -0.2300 0.1213 -0.9656
vn -0.2193 -0.1549 -0.9633
vn 0.1662 0.2623 -0.9506
vn -0.1097 0.2514 -0.9616
vn 0.3070 -0.1342 -0.9422
vn -0.0892 -0.2752 -0.9572
vn 0.2963 0.1419 -0.9445
vn 0.1576 -0.2112 -0.9646
vn -0.1739 0.0956 -0.9801
vn -0.1653 -0.1252 -0.9783
vn 0.1413 0.2067 -0.9681
vn -0.0792 0.1980 -0.9770
vn 0.2523 -0.1088 -0.9615
vn -0.0630 -0.2199 -0.9735
vn 0.2437 0.1120 -0.9634
vn 0.1381 -0.1751 -0.9748
vn -0.1359 0.0785 -0.9876
vn -0.1288 -0.1053 -0.9861
vn 0.1247 0.1690 -0.9777
vn -0.0590 0.1618 -0.9851
vn 0.2150 -0.0919 -0.9723
vn -0.0456 -0.1823 -0.9822
vn 0.2079 0.0920 -0.9738
vn 0.1228 -0.1547 -0.9803
vn -0.1142 0.0646 -0.9914
vn -0.1082 -0.0898 -0.9901
vn 0.1110 0.1474 -0.9828
vn -0.0433 0.1413 -0.9890
vn 0.1936 -0.0780 -0.9780
vn -0.0316 -0.1607 -0.9865
vn 0.1876 0.0765 -0.9793
usemtl Material.008
s off
f 105//1 106//1 108//1 107//1
f 107//2 108//2 110//2 109//2
f 109//3 110//3 112//3 111//3
f 111//4 112//4 114//4 113//4
f 113//5 114//5 116//5 115//5
f 115//6 116//6 118//6 117//6
f 108//7 106//7 120//7 118//7 116//7 114//7 112//7 110//7
f 119//8 120//8 106//8 105//8
f 117//9 118//9 120//9 119//9
f 105//10 107//10 109//10 111//10 113//10 115//10 117//10 119//10
usemtl Material.009
f 57//11 2//11 4//11 58//11
f 58//12 4//12 6//12 59//12
f 59//13 6//13 8//13 60//13
f 60//14 8//14 10//14 61//14
f 61//15 10//15 12//15 62//15
f 62//16 12//16 14//16 63//16
f 64//17 16//17 2//17 57//17
f 63//18 14//18 16//18 64//18
f 1//10 3//10 5//10 7//10 9//10 11//10 13//10 15//10
f 4//7 2//7 16//7 14//7 12//7 10//7 8//7 6//7
f 104//19 17//19 26//19 97//19
f 89//20 18//20 25//20 90//20
f 81//21 19//21 24//21 82//21
f 73//22 20//22 23//22 74//22
f 65//23 21//23 22//23 66//23
f 97//24 26//24 31//24 98//24
f 90//25 25//25 30//25 91//25
f 82//26 24//26 29//26 83//26
f 74//27 23//27 28//27 75//27
f 66//28 22//28 27//28 67//28
f 98//29 31//29 36//29 99//29
f 91//30 30//30 35//30 92//30
f 83//31 29//31 34//31 84//31
f 75//32 28//32 33//32 76//32
f 67//33 27//33 32//33 68//33
f 99//34 36//34 41//34 100//34
f 92//35 35//35 40//35 93//35
f 84//36 34//36 39//36 85//36
f 76//37 33//37 38//37 77//37
f 68//38 32//38 37//38 69//38
f 100//39 41//39 46//39 101//39
f 93//40 40//40 45//40 94//40
f 85//41 39//41 44//41 86//41
f 77//42 38//42 43//42 78//42
f 69//43 37//43 42//43 70//43
f 101//44 46//44 51//44 102//44
f 94//45 45//45 50//45 95//45
f 86//46 44//46 49//46 87//46
f 78//47 43//47 48//47 79//47
f 70//48 42//48 47//48 71//48
f 103//49 56//49 17//49 104//49
f 96//50 55//50 18//50 89//50
f 88//51 54//51 19//51 81//51
f 80//52 53//52 20//52 73//52
f 72//53 52//53 21//53 65//53
f 102//54 51//54 56//54 103//54
f 95//55 50//55 55//55 96//55
f 87//56 49//56 54//56 88//56
f 79//57 48//57 53//57 80//57
f 71//58 47//58 52//58 72//58
f 21//59 57//59 58//59 22//59
f 22//60 58//60 59//60 27//60
f 27//61 59//61 60//61 32//61
f 32//62 60//62 61//62 37//62
f 37//63 61//63 62//63 42//63
f 42//64 62//64 63//64 47//64
f 52//65 64//65 57//65 21//65
f 47//66 63//66 64//66 52//66
f 20//67 65//67 66//67 23//67
f 23//68 66//68 67//68 28//68
f 28//69 67//69 68//69 33//69
f 33//70 68//70 69//70 38//70
f 38//71 69//71 70//71 43//71
f 43//72 70//72 71//72 48//72
f 53//73 72//73 65//73 20//73
f 48//74 71//74 72//74 53//74
f 19//75 73//75 74//75 24//75
f 24//76 74//76 75//76 29//76
f 29//77 75//77 76//77 34//77
f 34//78 76//78 77//78 39//78
f 39//79 77//79 78//79 44//79
f 44//80 78//80 79//80 49//80
f 54//81 80//81 73//81 19//81
f 49//82 79//82 80//82 54//82
f 18//83 81//83 82//83 25//83
f 25//84 82//84 83//84 30//84
f 30//85 83//85 84//85 35//85
f 35//86 84//86 85//86 40//86
f 40//87 85//87 86//87 45//87
f 45//88 86//88 87//88 50//88
f 55//89 88//89 81//89 18//89
f 50//90 87//90 88//90 55//90
f 17//91 89//91 90//91 26//91
f 26//92 90//92 91//92 31//92
f 31//93 91//93 92//93 36//93
f 36//94 92//94 93//94 41//94
f 41//95 93//95 94//95 46//95
f 46//96 94//96 95//96 51//96
f 56//97 96//97 89//97 17//97
f 51//98 95//98 96//98 56//98
f 1//99 104//99 97//99 3//99
f 3//100 97//100 98//100 5//100
f 5//101 98//101 99//101 7//101
f 7//102 99//102 100//102 9//102
f 9//103 100//103 101//103 11//103
f 11//104 101//104 102//104 13//104
f 15//105 103//105 104//105 1//105
f 13//106 102//106 103//106 15//106
